<svg xmlns="http://www.w3.org/2000/svg" width="800" height="530" viewBox="0 0 800 530"><rect width="800" height="530" fill="#e4e6df"/><g fill="none" stroke="#516352" stroke-width="1" opacity=".2"><circle cx="400" cy="240" r="180"/><circle cx="400" cy="240" r="125"/><path d="M70 265H730M400 30V460"/></g><rect x="150" y="82" width="500" height="348" rx="6" fill="#f5f1ea" stroke="#adb6a7"/><path d="M150 126H650" stroke="#adb6a7"/><g fill="#a5afa0"><circle cx="172" cy="104" r="4"/><circle cx="186" cy="104" r="4"/><circle cx="200" cy="104" r="4"/></g><text x="400" y="199" font-family="Georgia,serif" font-size="41" text-anchor="middle" fill="#455844">Hygro<tspan font-style="italic">Sense</tspan></text><g stroke="#516352" fill="none" stroke-width="2"><path d="M400 310V252M400 270C374 270 355 256 355 232c29 0 45 15 45 38ZM400 286c27 0 47-17 47-43-30 0-47 17-47 43Z"/><path d="M381 310h38M375 242l25 28M425 258l-25 28"/></g><path d="M245 332H555" stroke="#adb6a7"/><g font-family="Arial,sans-serif" font-size="15" text-anchor="middle" fill="#625c57"><text x="285" y="369">Arduino Cloud</text><text x="414" y="369">Next.js</text><text x="516" y="369">OpenAI</text></g><g fill="#516352"><circle cx="360" cy="364" r="2"/><circle cx="463" cy="364" r="2"/></g></svg>
